<svg xmlns="http://www.w3.org/2000/svg" viewBox="0 0 483.67 39.9"><defs><style>.cls-1,.cls-2{fill:#fff;}.cls-1{fill-rule:evenodd;}</style></defs><path d="M473.67 10.5l3.3 5.96 6.7 1.3L479 22.7l.85 6.77-6.18-2.9-6.18 2.9.83-6.78-4.66-4.98 6.7-1.3 3.3-5.96M10 10.5l3.3 5.96 6.7 1.3-4.67 4.96.85 6.77L10 26.6l-6.18 2.9.85-6.78L0 17.75l6.7-1.3L10 10.5" class="cls-1"/><path d="M283.8 26.63q0 6.07-3.78 9.57t-11.32 3.5a27.55 27.55 0 0 1-7.22-.87 16.08 16.08 0 0 1-5.8-2.9l-.35-11.3a18.07 18.07 0 0 0 5.83 3.6 18.4 18.4 0 0 0 6.36 1.1 7.47 7.47 0 0 0 2.7-.34 1.18 1.18 0 0 0 .84-1.14 1.73 1.73 0 0 0-.15-.77 1.6 1.6 0 0 0-.7-.6 16.7 16.7 0 0 0-1.6-.7l-2.84-1.07a16 16 0 0 1-7.3-5.07 11.48 11.48 0 0 1-2.45-7.12 12.7 12.7 0 0 1 1-5.1 11.3 11.3 0 0 1 2.85-4 13 13 0 0 1 4.4-2.54 17.43 17.43 0 0 1 5.8-.9 29.4 29.4 0 0 1 3.7.2 26.33 26.33 0 0 1 2.8.5 12.35 12.35 0 0 1 2.14.72 11.4 11.4 0 0 1 1.6.88l-.3 10.5a16.28 16.28 0 0 0-3.9-1.8 14.34 14.34 0 0 0-4.4-.7 7 7 0 0 0-2.65.3 1.08 1.08 0 0 0-.65 1 1.25 1.25 0 0 0 .16.63 1.7 1.7 0 0 0 .7.56 12.9 12.9 0 0 0 1.66.66l2.92 1a17.08 17.08 0 0 1 3.9 1.92 15.1 15.1 0 0 1 3.17 2.8 12.73 12.73 0 0 1 2.1 3.54 10.26 10.26 0 0 1 .8 3.9zm38.05 12.02L321 27.93q-.12-1.18-.18-2.5a23.52 23.52 0 0 1 .06-2.86h-.12q-.47 1.6-.94 2.86a23.2 23.2 0 0 1-1.2 2.57l-5.5 10.6h-5.18L302.46 28a32.45 32.45 0 0 1-2.18-5.48h-.12q.12 1.53.1 2.77t-.16 2.57l-.88 10.72h-12.5L290 1.05h11.3l6.37 12.3q.65 1.3 1.44 3t1.4 3.28h.06q.53-1.53 1.27-3.24t1.44-3.06l6.3-12.3H331l3.3 37.58zm39.7 0l-1.76-5.9h-10.1l-1.77 5.9h-11.6l13.54-37.6h10.54l13.6 37.6zm-6-21.1q-.23-.64-.43-1.4a13.2 13.2 0 0 1-.32-1.6h-.12a13.54 13.54 0 0 1-.32 1.6l-.36 1.4-1.7 5.84h5zm48.55 9.08q0 6.07-3.77 9.57T389 39.7a27.55 27.55 0 0 1-7.22-.87 16.08 16.08 0 0 1-5.8-2.9l-.35-11.3a18.08 18.08 0 0 0 5.83 3.6 18.4 18.4 0 0 0 6.36 1.1 7.48 7.48 0 0 0 2.7-.34 1.18 1.18 0 0 0 .83-1.14 1.73 1.73 0 0 0-.15-.77 1.6 1.6 0 0 0-.7-.6 16.66 16.66 0 0 0-1.63-.7l-2.83-1.07a16 16 0 0 1-7.3-5.07 11.48 11.48 0 0 1-2.48-7.13 12.7 12.7 0 0 1 1-5.1 11.3 11.3 0 0 1 2.84-4A13 13 0 0 1 384.58.9a17.43 17.43 0 0 1 5.8-.9 29.4 29.4 0 0 1 3.7.2 26.33 26.33 0 0 1 2.8.5 12.35 12.35 0 0 1 2.12.72 11.4 11.4 0 0 1 1.62.88l-.35 10.5a16.3 16.3 0 0 0-3.86-1.8 14.34 14.34 0 0 0-4.37-.7 7 7 0 0 0-2.65.3 1.08 1.08 0 0 0-.65 1 1.25 1.25 0 0 0 .15.63 1.7 1.7 0 0 0 .7.56 12.88 12.88 0 0 0 1.66.66l2.92 1a17.1 17.1 0 0 1 3.85 2 15.1 15.1 0 0 1 3.2 2.8 12.74 12.74 0 0 1 2.1 3.48 10.26 10.26 0 0 1 .8 3.88zm25.75 12.02V25.28h-9.66v13.37H407.6V1.05h12.55v13.4h9.66V1.05h12.56v37.6zM69.4 13.33a13.82 13.82 0 0 0-3.4-1.6 17.3 17.3 0 0 0-5-.58 10.33 10.33 0 0 0-4.13.77 8.67 8.67 0 0 0-2.95 2 8.48 8.48 0 0 0-1.77 2.86 9.25 9.25 0 0 0-.62 3.22 8.86 8.86 0 0 0 .62 3.24 8.23 8.23 0 0 0 1.85 2.9 9.37 9.37 0 0 0 3.16 2 11.7 11.7 0 0 0 4.42.78 16.8 16.8 0 0 0 4.72-.6 10.68 10.68 0 0 0 3.36-1.58l-.35 11a10.78 10.78 0 0 1-4 1.6 27.43 27.43 0 0 1-5.85.58 23.25 23.25 0 0 1-7.55-1.27 20 20 0 0 1-6.64-3.77 19 19 0 0 1-4.72-6.22 19.5 19.5 0 0 1-1.8-8.6 19.36 19.36 0 0 1 1.8-8.54 19 19 0 0 1 4.72-6.22 20.44 20.44 0 0 1 6.63-3.8A22.78 22.78 0 0 1 59.4.2a27.83 27.83 0 0 1 5.9.58 15.2 15.2 0 0 1 4.42 1.6zm27.3 25.5L94.95 33h-10.1l-1.76 5.9H71.45L85 1.24h10.6l13.55 37.6zm-6-21.1q-.23-.63-.43-1.4a13.2 13.2 0 0 1-.32-1.6h-.12a13.56 13.56 0 0 1-.32 1.6l-.36 1.4-1.7 5.85h5zm48.6 9.1q0 6.06-3.8 9.56t-11.3 3.5a27.6 27.6 0 0 1-7.2-.9 16.1 16.1 0 0 1-5.8-2.9l-.36-11.3a18.08 18.08 0 0 0 5.84 3.6A18.42 18.42 0 0 0 123 29.5a7.5 7.5 0 0 0 2.7-.35 1.18 1.18 0 0 0 .84-1.12 1.73 1.73 0 0 0-.15-.77 1.6 1.6 0 0 0-.73-.6 16.88 16.88 0 0 0-1.62-.7l-2.83-1.07a16 16 0 0 1-7.3-5.06 11.47 11.47 0 0 1-2.5-7.13 12.7 12.7 0 0 1 1-5.1 11.3 11.3 0 0 1 2.85-4 13 13 0 0 1 4.44-2.55 17.46 17.46 0 0 1 5.8-.9 29.37 29.37 0 0 1 3.73.2 26.34 26.34 0 0 1 2.8.5 12.38 12.38 0 0 1 2.12.7 11.36 11.36 0 0 1 1.62.9L135.45 13a16.3 16.3 0 0 0-3.86-1.77 14.37 14.37 0 0 0-4.4-.7 7 7 0 0 0-2.66.3 1.08 1.08 0 0 0-.65 1 1.25 1.25 0 0 0 .14.63 1.7 1.7 0 0 0 .7.56 12.85 12.85 0 0 0 1.66.68l2.93 1a17.1 17.1 0 0 1 3.9 1.92 15.1 15.1 0 0 1 3.17 2.8 12.73 12.73 0 0 1 2.12 3.48 10.25 10.25 0 0 1 .77 3.92zm3.82 12V1.24h12.56v37.6zm47.53 0l-11.5-12.8q-1.54-1.63-2.92-3.37t-2.5-3.2l-.13.05q.12 1.43.18 3.2t.06 3.24v12.9h-12.56V1.24h10.85l9.26 10.38q1.04 1.18 2.3 2.68t2.05 2.7l.12-.06q-.12-1.24-.18-2.47t-.07-2.7V1.24h12.56v37.6zM243.1 20a19.14 19.14 0 0 1-1.7 8.16 19.58 19.58 0 0 1-4.55 6.27 20.26 20.26 0 0 1-6.55 4 22.14 22.14 0 0 1-15.57 0 20.25 20.25 0 0 1-6.55-4 19.58 19.58 0 0 1-4.54-6.27 19.13 19.13 0 0 1-1.7-8.16 19.1 19.1 0 0 1 1.7-8.2 19.7 19.7 0 0 1 4.54-6.24 20.26 20.26 0 0 1 6.55-4 22.14 22.14 0 0 1 15.57 0 20.28 20.28 0 0 1 6.55 4 19.7 19.7 0 0 1 4.54 6.25 19.1 19.1 0 0 1 1.7 8.2zm-12.8 0a9.6 9.6 0 0 0-.6-3.36 8.52 8.52 0 0 0-1.64-2.77 8.3 8.3 0 0 0-2.48-1.87 7 7 0 0 0-6.13 0 8.3 8.3 0 0 0-2.45 1.92 8.5 8.5 0 0 0-1.65 2.77 9.57 9.57 0 0 0-.6 3.34 9.33 9.33 0 0 0 .6 3.33A8.57 8.57 0 0 0 217 26.1a7.88 7.88 0 0 0 2.45 1.9 7.28 7.28 0 0 0 6.13 0 7.87 7.87 0 0 0 2.48-1.87 8.58 8.58 0 0 0 1.65-2.74 9.35 9.35 0 0 0 .6-3.4z" class="cls-2"/></svg>